HIERARCHY
ROOT simHips
{
  OFFSET 57.6026 101.098 -111.029
  CHANNELS 6 Xposition Yposition Zposition Zrotation Xrotation Yrotation
  JOINT simSpine
  {
    OFFSET -0.000355721 21.3001 -0.016921
    CHANNELS 3 Zrotation Xrotation Yrotation
    JOINT simLeftArm
    {
      OFFSET 13.5181 21.3012 0
      CHANNELS 3 Zrotation Xrotation Yrotation
      JOINT simLeftForeArm
      {
        OFFSET 24.5783 0 0
        CHANNELS 3 Zrotation Xrotation Yrotation
        JOINT simLeftHand
        {
          OFFSET 24.5783 0 0
          CHANNELS 3 Zrotation Xrotation Yrotation
          End Site
          {
            OFFSET 7.32568 1.52588e-05 0.0169305
          }
        }
      }
    }
    JOINT simHead
    {
      OFFSET 0 27.4458 -0.00489235
      CHANNELS 3 Zrotation Xrotation Yrotation
      End Site
      {
        OFFSET 0 0 0
      }
    }
    JOINT simRightArm
    {
      OFFSET -13.5174 21.3012 0
      CHANNELS 3 Zrotation Xrotation Yrotation
      JOINT simRightForeArm
      {
        OFFSET -24.5783 0 0
        CHANNELS 3 Zrotation Xrotation Yrotation
        JOINT simRightHand
        {
          OFFSET -24.5783 0 0
          CHANNELS 3 Zrotation Xrotation Yrotation
          End Site
          {
            OFFSET -7.32568 1.52588e-05 0.0169305
          }
        }
      }
    }
  }
  JOINT simRightUpLeg
  {
    OFFSET -8.44614 -9.41038 0.835684
    CHANNELS 3 Zrotation Xrotation Yrotation
    JOINT simRightLeg
    {
      OFFSET 0 -40.9639 0
      CHANNELS 3 Zrotation Xrotation Yrotation
      JOINT simRightFoot
      {
        OFFSET 0 -40.9639 0
        CHANNELS 3 Zrotation Xrotation Yrotation
        End Site
        {
          OFFSET 0.50614 -9.67405 14.6709
        }
      }
    }
  }
  JOINT simLeftUpLeg
  {
    OFFSET 8.44614 -9.41038 0.835684
    CHANNELS 3 Zrotation Xrotation Yrotation
    JOINT simLeftLeg
    {
      OFFSET 0 -40.9639 0
      CHANNELS 3 Zrotation Xrotation Yrotation
      JOINT simLeftFoot
      {
        OFFSET 0 -40.9639 0
        CHANNELS 3 Zrotation Xrotation Yrotation
        End Site
        {
          OFFSET -0.50614 -9.67405 14.6709
        }
      }
    }
  }
}
MOTION
Frames:	17
Frame Time:	0.0333333
67.0161 92.525 -122.421 19.977 -11.6952 50.1016 11.3316 19.9879 -9.55483 -91.9887 8.42694 -21.4061 8.56994 18.9247 -45.7024 -15.4705 -0.131761 16.7595 2.27565 7.69436 10.2914 84.2007 34.6803 -11.4832 -19.6183 -11.3316 74.4892 3.90384 0.561611 4.62443 0.773066 -7.10174 0.394485 13.7575 49.1213 -22.3437 6.27365 -38.324 8.24167 94.5353 -74.7998 148.585 -158.469 49.0361 -172.221 -64.441 37.517 43.6449 
67.1096 91.9589 -123.928 18.6831 -12.4073 50.5099 15.0885 19.724 -13.6154 -92.9718 7.28416 -21.6553 8.37916 19.096 -44.4383 -14.3843 -0.349209 17.1945 3.20984 5.94923 8.06025 84.0989 33.3947 -10.5815 -20.1449 -11.441 75.502 3.98694 0.654689 5.23634 1.43821 -8.47015 -0.159729 13.9356 49.4264 -22.5437 6.37964 -38.466 8.51625 76.0186 -76.1295 125.254 -154.539 54.0334 179.266 -78.1524 47.2286 64.2214 
67.3007 92.9688 -126.191 17.1682 -11.9986 48.835 17.268 18.9093 -15.2111 -94.5952 5.39028 -21.3415 8.22323 19.3946 -43.3355 -13.8129 -0.515069 17.7019 3.05584 5.37112 6.87856 83.8583 33.1059 -10.1653 -21.1261 -11.3936 76.9999 4.04145 0.73968 5.77634 1.3175 -9.47896 1.22128 12.1297 46.2717 -20.8984 5.98003 -35.0651 8.29207 60.5992 -74.9269 109.789 -147.398 58.8496 170.82 -94.2618 53.6399 81.6113 
67.4811 95.4892 -128.731 15.6066 -9.91555 44.9158 17.4311 18.3573 -14.7735 -94.5233 4.95609 -21.5483 8.12997 18.7077 -43.1223 -13.5466 -0.690676 18.4673 1.59663 4.59924 7.1158 82.6334 34.9575 -9.1524 -22.4596 -10.4938 77.5059 4.01011 0.730088 5.71592 -0.0980297 -9.65088 2.49459 8.085 38.6251 -17.5598 6.09383 -27.9648 9.81167 55.0491 -72.195 104.058 -140.456 61.5691 164.693 -125.179 55.4464 102.782 
67.9409 99.1696 -131.996 15.2927 -5.48894 39.8751 14.3143 17.563 -13.1418 -94.0307 5.07838 -21.6708 8.02713 17.6404 -43.0291 -13.7274 -0.837599 19.3271 0.421377 4.14648 8.13704 81.6663 37.0128 -9.12257 -22.3488 -10.6954 77.6381 4.21545 0.614175 4.97966 -3.67479 -7.38733 3.08561 1.58922 22.6898 -13.404 7.39885 -15.2349 12.065 71.2763 -71.5544 136.83 -151.861 54.6637 166.961 -34.8126 33.5146 40.99 
67.9254 102.432 -135.071 15.6671 0.0490904 34.4838 9.57599 16.5602 -11.0108 -92.9314 6.07302 -22.1692 7.914 15.9543 -43.3338 -14.3819 -0.935824 20.0857 -0.220966 2.88918 9.47649 81.0242 38.1237 -9.25809 -20.8019 -11.9905 77.4518 5.14105 0.447352 3.95428 -8.38876 -3.00074 3.39115 -1.67949 0.106103 -11.9066 8.42693 1.68522 15.7593 89.1059 -68.4005 178.871 -159.262 47.0054 179.193 15.4383 1.35737 22.3412 
67.5868 104.101 -137.426 15.2079 2.82779 29.8969 6.75482 17.0071 -9.4778 -91.3521 7.20422 -22.7497 7.85571 14.872 -43.8325 -14.7466 -0.917914 20.1097 -0.26459 0.665517 10.9871 81.103 38.5652 -9.60588 -19.2696 -13.0538 76.8423 5.65828 0.346309 3.3513 -8.85542 -6.13253 1.91913 -2.09044 0.0110835 -11.6439 9.37515 3.93914 18.2612 90.7198 -68.3241 179.17 -159.663 47.4205 178.258 10.9761 14.7767 26.9874 
67.1223 104.814 -139.087 14.5615 3.03741 26.4053 5.25741 19.2989 -8.87866 -90.7461 7.53795 -22.9251 7.93049 15.0982 -44.3652 -15.1239 -0.802345 19.6611 0.151266 -1.34647 12.5754 81.7069 38.1565 -9.62986 -18.5368 -12.7922 75.0273 5.45251 0.360064 3.41128 -6.88161 -8.29439 -0.182396 -0.377078 8.60008 -12.2106 7.33695 -1.35356 13.6387 92.7349 -68.7272 178.906 -161.499 44.9424 -179.727 9.07865 15.9934 25.5685 
66.7739 104.52 -140.217 14.1706 3.30989 23.5849 3.16739 21.1868 -8.66541 -91.5138 7.15382 -22.3828 8.21513 17.2588 -44.6676 -15.3932 -0.608632 18.8432 1.05256 -2.85601 13.8622 83.216 36.5548 -9.55717 -18.1685 -11.8854 72.8019 5.3003 0.419577 3.78941 -5.49106 -11.3858 -2.50294 2.22845 23.3395 -13.5255 4.81429 -10.218 6.32812 93.694 -71.1883 178.344 -163.074 42.5124 -178.356 6.8936 14.8721 24.0701 
66.6143 102.95 -141.16 13.9236 3.91436 21.0992 0.727264 21.7978 -8.0048 -92.5991 7.12816 -21.3383 8.53044 19.6377 -44.9622 -15.5874 -0.370583 17.849 1.24552 -3.92481 14.4632 85.6506 34.2872 -11.1995 -17.5779 -12.1328 72.0835 5.06578 0.471791 4.10783 -5.52134 -11.8921 -4.13872 6.1514 34.1912 -15.8047 4.19588 -18.5249 5.09096 97.011 -74.9633 -177.655 -163.926 41.1231 -177.474 5.79501 13.0911 24.362 
66.6131 100.292 -142.216 13.8451 4.13263 18.558 -1.38258 22.0157 -6.65986 -92.5587 8.34455 -20.8238 8.65992 19.6138 -45.6999 -16.4906 -0.266639 17.759 0.0640459 -5.11755 14.7753 87.3759 32.5943 -13.4202 -16.7124 -13.2849 72.4381 5.00663 0.397728 3.60502 -4.63353 -8.05497 -1.50413 6.63331 34.8625 -16.0662 7.81808 -29.8345 13.4049 102.965 -78.8458 -169.346 -164.074 40.9361 -176.921 5.73091 11.4552 25.9344 
66.3416 97.4606 -143.719 12.6162 3.01296 15.1342 -1.98345 23.1161 -4.84454 -91.4786 9.4843 -20.9347 8.67824 18.2981 -46.8753 -17.523 -0.227876 17.9568 -1.82285 -7.95545 16.4969 87.6861 32.7842 -14.3481 -16.2666 -13.9231 72.7978 5.00945 0.312476 3.01674 -1.07521 -4.81377 6.69189 5.79493 32.4528 -15.6384 12.0506 -41.7022 18.368 106.589 -80.2963 -165.257 -164.29 40.7234 -176.179 5.52964 10.3506 26.6729 
65.7316 95.411 -145.502 10.5706 1.3659 11.4042 -1.20136 25.2994 -4.8865 -90.8713 8.93725 -21.7201 8.69524 18.2118 -47.0625 -17.3939 0.00159395 17.0321 -3.37087 -12.5294 20.5218 87.3395 32.6238 -12.2932 -17.1614 -12.3417 71.4963 4.37747 0.382968 3.43296 2.93349 -7.60502 13.7083 8.60021 37.6146 -17.3644 11.5027 -47.0242 16.3724 102.395 -80.0276 -172.124 -164.589 40.2208 -175.916 4.92644 9.60926 26.3562 
65.4154 94.3839 -146.86 9.54601 0.400577 9.41893 0.00643922 26.2987 -7.507 -92.3452 7.18351 -21.947 8.85657 20.2406 -46.2943 -16.12 0.0819643 16.1802 -3.92095 -14.8252 24.2908 88.2775 29.3935 -10.0059 -18.011 -10.8218 70.7144 4.13797 0.519894 4.35427 4.17827 -10.2586 13.6756 10.6063 42.0224 -18.7435 12.6533 -47.9437 18.5753 97.4708 -81.7158 -178.148 -163.736 41.4521 -177.105 7.42805 8.30087 32.3299 
65.0609 94.425 -147.445 8.94147 -0.650374 7.6831 0.805254 25.3215 -8.66425 -94.6176 5.43841 -21.3243 8.82702 22.4343 -44.9114 -15.4743 -0.113112 16.6804 -4.01355 -13.3883 26.1252 89.0087 28.0641 -10.3768 -17.551 -11.7358 71.309 4.80916 0.583339 4.81146 4.99675 -9.17426 13.7243 9.99444 40.9532 -18.477 13.5213 -47.1429 20.4942 95.0907 -82.6691 -179.865 -163.207 42.2599 -177.555 9.66185 5.1571 37.1537 
64.1511 95.7825 -147.404 8.72115 -1.31821 4.51452 -0.128011 23.6569 -7.41468 -93.4198 5.9041 -21.0677 8.58525 21.5897 -44.1577 -15.963 -0.228779 17.3934 -3.63568 -11.5189 27.3161 88.8372 30.9713 -11.8191 -17.9003 -11.226 71.1043 4.53613 0.570989 4.7143 6.11181 -6.13302 16.0265 7.28894 35.9086 -16.964 13.1699 -43.2325 20.2428 97.4314 -81.0374 -177.14 -164.134 40.9221 -176.343 7.91368 1.31261 32.7807 
62.9985 98.2122 -146.956 9.90925 -1.6624 1.446 -2.24108 21.8706 -6.53062 -91.3628 6.99224 -20.3363 8.58856 20.6696 -44.6325 -16.4438 -0.304053 17.8962 -3.30117 -10.3054 28.7372 89.7079 32.7595 -12.8135 -18.1878 -10.1762 70.0151 4.21266 0.560199 4.62634 5.05777 -2.18227 16.6189 3.65643 28.535 -15.0723 12.9876 -35.5649 20.8541 99.2564 -79.5278 -173.948 -165.098 39.486 -174.752 6.08697 1.55902 28.7846 
